<svg width="14" height="15" viewBox="0 0 14 15" fill="none" xmlns="http://www.w3.org/2000/svg">
<path d="M14 7.75C14 6.73828 13.3438 5.86328 12.4141 5.50781C12.8242 4.63281 12.6602 3.53906 11.9492 2.80078C11.2109 2.08984 10.1172 1.92578 9.24219 2.33594C8.88672 1.40625 8.01172 0.75 7 0.75C5.96094 0.75 5.08594 1.40625 4.73047 2.33594C3.85547 1.92578 2.76172 2.08984 2.05078 2.80078C1.3125 3.53906 1.14844 4.63281 1.55859 5.50781C0.628906 5.86328 0 6.73828 0 7.75C0 8.78906 0.628906 9.66406 1.55859 10.0195C1.14844 10.8945 1.3125 11.9883 2.05078 12.6992C2.76172 13.4375 3.85547 13.6016 4.73047 13.1914C5.08594 14.1211 5.96094 14.75 7 14.75C8.01172 14.75 8.88672 14.1211 9.24219 13.1914C10.1445 13.6016 11.2109 13.4375 11.9492 12.6992C12.6602 11.9883 12.8242 10.8945 12.4141 10.0195C13.3438 9.66406 14 8.78906 14 7.75ZM5.25 5.125C5.71484 5.125 6.125 5.53516 6.125 6C6.125 6.49219 5.71484 6.875 5.25 6.875C4.75781 6.875 4.375 6.49219 4.375 6C4.375 5.53516 4.75781 5.125 5.25 5.125ZM5.57812 10.1016C5.41406 10.2656 5.11328 10.2656 4.94922 10.1016L4.64844 9.80078C4.48438 9.63672 4.48438 9.33594 4.64844 9.17188L8.39453 5.42578C8.55859 5.26172 8.85938 5.26172 9.02344 5.42578L9.32422 5.72656C9.48828 5.89062 9.48828 6.19141 9.32422 6.35547L5.57812 10.1016ZM8.75 10.375C8.25781 10.375 7.875 9.99219 7.875 9.5C7.875 9.03516 8.25781 8.625 8.75 8.625C9.21484 8.625 9.625 9.03516 9.625 9.5C9.625 9.99219 9.21484 10.375 8.75 10.375Z" fill="#5F5F5F"/>
</svg>
